<?xml version="1.0" encoding="utf-8"?>
<!-- Generator: Adobe Illustrator 26.0.1, SVG Export Plug-In . SVG Version: 6.00 Build 0)  -->
<svg version="1.1" xmlns="http://www.w3.org/2000/svg" xmlns:xlink="http://www.w3.org/1999/xlink" x="0px" y="0px"
	 viewBox="0 0 113.39 40.36" style="enable-background:new 0 0 113.39 40.36;" xml:space="preserve">
<style type="text/css">
	.st0{fill:#FFFFFF;}
</style>
<g id="Layer_1">
</g>
<g id="Layer_2">
	<g>
		<path class="st0" d="M108.74,9.35c2.54,0,4.65-2.1,4.65-4.7c0-2.54-2.1-4.65-4.65-4.65s-4.65,2.1-4.65,4.65
			C104.09,7.25,106.19,9.35,108.74,9.35z"/>
		<g>
			<rect x="104.94" y="12.14" class="st0" width="7.61" height="27.74"/>
			<g>
				<rect x="35.1" y="1.05" class="st0" width="7.61" height="38.83"/>
			</g>
			<g>
				<path class="st0" d="M21.68,12.12v1.52c-2.16-1.32-4.61-1.98-7.33-1.98c-3.96,0-7.34,1.4-10.14,4.2C1.4,18.66,0,22.04,0,26.01
					c0,3.96,1.4,7.34,4.21,10.15c2.8,2.8,6.18,4.2,10.14,4.2c2.72,0,5.17-0.66,7.33-1.98v1.47h7.03V12.12H21.68z M19.54,31.19
					c-1.33,1.33-3.16,2.15-5.19,2.15c-2.02,0-3.85-0.82-5.18-2.15c-1.32-1.33-2.14-3.16-2.14-5.18c0-2.03,0.82-3.86,2.14-5.18
					c1.33-1.33,3.16-2.15,5.18-2.15c2.03,0,3.86,0.82,5.19,2.15c1.32,1.32,2.14,3.15,2.14,5.18C21.68,28.03,20.86,29.86,19.54,31.19
					z"/>
			</g>
			<path class="st0" d="M99.5,26.01v13.87h-7.02V26.01c0-2.03-0.82-3.86-2.15-5.18c-1.33-1.33-3.16-2.15-5.18-2.15
				c-2.02,0-3.86,0.82-5.18,2.15c-1.33,1.32-2.15,3.15-2.15,5.18v13.87H70.8V26.01c0-2.03-0.82-3.86-2.15-5.18
				c-1.32-1.33-3.16-2.15-5.18-2.15c-2.02,0-3.86,0.82-5.18,2.15c-1.33,1.32-2.15,3.15-2.15,5.18v13.87h-7.02V12.14h7.02v1.5
				c2.17-1.32,4.62-1.98,7.33-1.98c3.96,0,7.35,1.4,10.15,4.2c0.24,0.24,0.47,0.49,0.69,0.74c0.22-0.25,0.45-0.5,0.69-0.74
				c2.8-2.8,6.19-4.2,10.15-4.2c3.96,0,7.35,1.4,10.15,4.2C98.1,18.66,99.5,22.04,99.5,26.01z"/>
		</g>
	</g>
</g>
</svg>
